PathFileType	4	(X/Y/Z)	/Users/itak/Documents/Research/Walk-IL/dataset/trc/00119_00007.trc
DataRate	CameraRate	NumFrames	NumMarkers	Units	OrigDataRate	OrigDataStartFrame	OrigNumFrames
100.000000	100.000000	4	53	mm	100.000000	268	716
Frame#	Time	RPSI			LPSI			L3			STRN			T10			C7			CLAV			RBAK			LBAK			LSHO			LUPA			LAEL			LAOL			LWTS			LWPS			LFRA			LIFD			LHPS			LHTS			RSHO			RUPA			RAEL			RAOL			RWTS			RWPS			RFRA			RIFD			RHTS			RHPS			RBHD			LFHD			RFHD			LBHD			LHIP			RHIP			RASI			LASI			LKNE			LTHI			LANK			LTIP			LTOE			LMT1			LMT5			LHEE			RKNE			RTHI			RANK			RTIP			RTOE			RMT1			RMT5			RHEE			
		X1	Y1	Z1	X2	Y2	Z2	X3	Y3	Z3	X4	Y4	Z4	X5	Y5	Z5	X6	Y6	Z6	X7	Y7	Z7	X8	Y8	Z8	X9	Y9	Z9	X10	Y10	Z10	X11	Y11	Z11	X12	Y12	Z12	X13	Y13	Z13	X14	Y14	Z14	X15	Y15	Z15	X16	Y16	Z16	X17	Y17	Z17	X18	Y18	Z18	X19	Y19	Z19	X20	Y20	Z20	X21	Y21	Z21	X22	Y22	Z22	X23	Y23	Z23	X24	Y24	Z24	X25	Y25	Z25	X26	Y26	Z26	X27	Y27	Z27	X28	Y28	Z28	X29	Y29	Z29	X30	Y30	Z30	X31	Y31	Z31	X32	Y32	Z32	X33	Y33	Z33	X34	Y34	Z34	X35	Y35	Z35	X36	Y36	Z36	X37	Y37	Z37	X38	Y38	Z38	X39	Y39	Z39	X40	Y40	Z40	X41	Y41	Z41	X42	Y42	Z42	X43	Y43	Z43	X44	Y44	Z44	X45	Y45	Z45	X46	Y46	Z46	X47	Y47	Z47	X48	Y48	Z48	X49	Y49	Z49	X50	Y50	Z50	X51	Y51	Z51	X52	Y52	Z52	X53	Y53	Z53	

269	2.68	1016.346130371094	1092.469604492188	184.8359680175781	882.5985717773438	1084.482177734375	170.3627624511719	947.41162109375	1123.82421875	184.1521606445312	965.8240356445312	1317.052124023438	-40.99265289306641	953.9796142578125	1273.900268554688	206.6696929931641	928.0737915039062	1566.007080078125	171.1764221191406	949.25830078125	1451.755981445312	-8.281315803527832	1021.374145507812	1389.14111328125	233.934326171875	828.6399536132812	1538.714965820312	175.5206451416016	762.7694091796875	1517.425048828125	86.41917419433594	700.9678955078125	1383.348999023438	119.2484283447266	693.362548828125	1166.475952148438	139.7976226806641	759.615478515625	1165.416748046875	200.2918701171875	738.6788940429688	896.9965209960938	77.26651763916016	724.968505859375	884.6170654296875	164.7739868164062	693.5828247070312	1049.620849609375	141.7128753662109	775.7456665039062	706.0430908203125	95.26818084716797	725.1484985351562	805.7186889648438	148.0022277832031	732.1847534179688	805.334716796875	78.61656188964844	1111.99609375	1556.705200195312	121.5580673217773	1178.948364257812	1486.912353515625	140.75927734375	1231.367431640625	1194.150268554688	132.4915618896484	1136.2626953125	1182.92529296875	137.9181060791016	1246.014282226562	988.1278076171875	-59.48620223999023	1273.511352539062	956.1430053710938	11.50790023803711	1254.2578125	1127.303344726562	95.99423980712891	1248.143432617188	806.7775268554688	-132.6516571044922	1264.079223632812	891.7622680664062	-113.6117706298828	1289.4677734375	869.9619140625	-48.12399291992188	995.9751586914062	1753.20068359375	95.64257049560547	810.4240112304688	1772.066772460938	-23.70965194702148	931.51220703125	1803.171630859375	-62.70595550537109	873.9462280273438	1726.378540039062	143.7212829589844	793.6748046875	990.466552734375	54.35661697387695	1156.040161132812	998.9059448242188	85.31490325927734	1118.416137695312	1067.237670898438	-10.31125354766846	853.3455810546875	1055.805419921875	-41.00830078125	898.3663330078125	520.0830078125	-111.8958129882812	844.4483032226562	641.4633178710938	-39.52220916748047	995.9544067382812	26.7314395904541	-180.3216552734375	928.052001953125	255.9156494140625	-99.07778930664062	1009.953063964844	80.57745361328125	-405.19482421875	1056.727783203125	70.47692108154297	-334.8522033691406	952.4326171875	45.60707092285156	-294.4437866210938	1068.276123046875	24.27396011352539	-121.9763412475586	1122.137084960938	504.9164428710938	151.0674133300781	1152.17529296875	783.791015625	89.35951995849609	1034.570434570312	80.11824798583984	471.0262145996094	1116.347900390625	392.0303649902344	240.3183441162109	1031.3662109375	34.29877090454102	239.4925689697266	982.1976318359375	41.21601104736328	289.2816162109375	1085.015869140625	33.42734909057617	355.5979614257812	975.9490966796875	113.703483581543	507.8593444824219	
270	2.69	1017.333679199219	1092.46728515625	173.2901306152344	883.3753051757812	1085.140258789062	159.3660583496094	948.3265380859375	1124.328125	172.9162750244141	965.0203247070312	1317.83740234375	-52.15007019042969	954.904052734375	1274.340942382812	195.7529907226562	928.10595703125	1566.388427734375	160.9373321533203	948.4627685546875	1452.403442382812	-18.82372665405273	1022.19775390625	1389.550903320312	222.8619384765625	828.773193359375	1538.852294921875	165.9227905273438	762.4244995117188	1517.62744140625	77.24723815917969	701.1190185546875	1383.382568359375	110.1727066040039	693.8491821289062	1166.468505859375	130.3547668457031	760.6060791015625	1165.388061523438	190.3986511230469	739.0067749023438	896.940185546875	67.65254211425781	725.8640747070312	884.6718139648438	155.1939392089844	694.1759643554688	1049.518310546875	132.2833557128906	776.7757568359375	705.9853515625	85.91205596923828	726.0839233398438	805.75146484375	138.5755004882812	732.6885375976562	805.216552734375	69.16903686523438	1111.917358398438	1557.34912109375	110.198974609375	1178.878540039062	1487.4384765625	129.0383758544922	1229.970825195312	1194.515502929688	121.6618957519531	1134.73095703125	1183.33203125	127.129768371582	1243.893432617188	986.9451293945312	-68.62953948974609	1271.245971679688	955.440673828125	2.623910188674927	1252.621215820312	1127.380981445312	85.65345764160156	1245.313110351562	804.9927368164062	-140.3196258544922	1261.500122070312	890.0595703125	-121.9535522460938	1286.810913085938	868.6990966796875	-56.28287506103516	995.4083251953125	1753.874877929688	85.44226837158203	808.9070434570312	1772.807495117188	-32.54229736328125	929.7547607421875	1804.070922851562	-72.36505126953125	873.7374267578125	1726.85205078125	134.3602752685547	793.3712768554688	992.0213623046875	43.85464477539062	1155.951049804688	998.6467895507812	72.33303833007812	1117.812622070312	1067.504638671875	-22.73114967346191	852.5751342773438	1056.929931640625	-51.76852416992188	899.0921630859375	520.9732055664062	-121.3744277954102	845.3065795898438	643.1351928710938	-50.57839584350586	996.4173583984375	26.54800605773926	-181.6317443847656	927.341552734375	256.4346008300781	-106.2018814086914	1013.635375976562	74.82744598388672	-407.9871826171875	1059.376220703125	66.16496276855469	-336.6861572265625	954.3997802734375	43.30059814453125	-296.7827758789062	1068.217163085938	25.1624641418457	-122.4715118408203	1125.671630859375	503.865966796875	134.8736114501953	1152.9423828125	783.55517578125	74.8780517578125	1039.504760742188	87.28070068359375	467.2962341308594	1120.309448242188	393.1509399414062	226.9583892822266	1031.138671875	34.24258804321289	239.8728485107422	982.8165283203125	42.48822784423828	288.8294067382812	1085.770874023438	33.30720520019531	354.2677001953125	982.0089111328125	123.9181442260742	502.7807312011719	
271	2.7	1018.275085449219	1092.729858398438	161.8486938476562	884.0969848632812	1086.194580078125	148.5511779785156	949.177490234375	1125.168334960938	161.8363037109375	964.1060180664062	1318.977905273438	-63.25533294677734	955.8286743164062	1275.110107421875	184.9221801757812	928.1316528320312	1567.076171875	150.7438354492188	947.5711669921875	1453.40478515625	-29.31463432312012	1023.04150390625	1390.291015625	211.7509307861328	828.9296875	1539.3515625	156.3830261230469	762.0552368164062	1518.219482421875	68.19027709960938	701.2193603515625	1383.837890625	101.1847915649414	694.228759765625	1166.875	120.8355255126953	761.4620361328125	1165.724975585938	180.4479675292969	739.144287109375	897.3312377929688	57.76473999023438	726.56494140625	885.110107421875	145.3222045898438	694.6129760742188	1049.8125	122.7001342773438	777.4879760742188	706.3361206054688	76.07781219482422	726.7977294921875	806.1795654296875	128.8203430175781	732.9777221679688	805.537109375	59.38144683837891	1111.772338867188	1558.344116210938	98.80501556396484	1178.770263671875	1488.348388671875	117.2456665039062	1228.468139648438	1195.301879882812	110.7656555175781	1133.074462890625	1184.152465820312	116.2893753051758	1241.644775390625	985.890625	-77.53064727783203	1268.859619140625	954.9955444335938	-5.971174240112305	1250.854248046875	1127.814086914062	75.33734893798828	1242.3681640625	803.142578125	-147.3627014160156	1258.815673828125	888.4022216796875	-129.8925476074219	1284.05419921875	867.6168212890625	-63.99355697631836	994.7450561523438	1754.859619140625	75.20319366455078	807.3030395507812	1773.782104492188	-41.40626525878906	927.8971557617188	1805.204345703125	-82.08040618896484	873.44384765625	1727.645141601562	124.9705505371094	792.92626953125	993.9796752929688	33.53089141845703	1155.689086914062	998.6229858398438	59.33243942260742	1117.028930664062	1068.100463867188	-35.11725616455078	851.6295166015625	1058.469604492188	-62.37236785888672	899.5260009765625	522.1951293945312	-130.655517578125	845.81689453125	645.1214599609375	-61.35404586791992	996.4369506835938	26.43696212768555	-182.7437438964844	925.8986206054688	257.2120361328125	-113.2268371582031	1016.957824707031	69.68379974365234	-410.253662109375	1061.639404296875	62.33950042724609	-338.1138305664062	955.9549560546875	41.38747787475586	-298.8594055175781	1067.729858398438	26.09401702880859	-122.7864227294922	1129.453979492188	503.0169677734375	117.5793304443359	1153.65869140625	783.6170654296875	60.04669952392578	1045.357177734375	95.12960052490234	462.4816589355469	1124.747436523438	394.4488830566406	212.2234802246094	1030.957641601562	34.05338668823242	240.1771240234375	983.6068115234375	44.02471923828125	288.1385498046875	1086.71337890625	33.38802719116211	352.55517578125	989.2926025390625	134.9676666259766	496.4444580078125	
272	2.71	1019.116271972656	1093.214111328125	150.5323944091797	884.7188720703125	1087.540649414062	137.9338836669922	949.9296264648438	1126.277221679688	150.9331817626953	963.0802612304688	1320.409545898438	-74.25907135009766	956.7413940429688	1276.131713867188	174.1780700683594	928.1640014648438	1568.009033203125	140.6179504394531	946.5892944335938	1454.705200195312	-39.73584365844727	1023.901611328125	1391.291748046875	200.6121063232422	829.1221313476562	1540.162475585938	146.9220733642578	761.67626953125	1519.174682617188	59.26398468017578	701.2672729492188	1384.693969726562	92.30695343017578	694.50537109375	1167.67578125	111.2802886962891	762.1922607421875	1166.413696289062	170.4713897705078	739.0809326171875	898.1620483398438	47.59846115112305	727.0771484375	885.9108276367188	135.164306640625	694.9014892578125	1050.500122070312	112.9827728271484	777.8419189453125	707.0927124023438	65.71600341796875	727.2855224609375	806.9857177734375	118.7450408935547	733.0391845703125	806.2909545898438	49.24044799804688	1111.559692382812	1559.635498046875	87.40118408203125	1178.628662109375	1489.597412109375	105.4038848876953	1226.888061523438	1196.46875	99.82417297363281	1131.336303710938	1185.403198242188	105.4227676391602	1239.279907226562	984.9600830078125	-86.21590423583984	1266.380249023438	954.7988891601562	-14.31379318237305	1248.985595703125	1128.57958984375	65.04617309570312	1239.2998046875	801.2301635742188	-153.8165893554688	1256.032470703125	886.7938232421875	-137.4620056152344	1281.218872070312	866.7194213867188	-71.30488586425781	994.0046997070312	1756.08056640625	64.95311737060547	805.6387329101562	1774.923217773438	-50.26641464233398	925.9584350585938	1806.503662109375	-91.81938934326172	873.0889282226562	1728.692504882812	115.5825119018555	792.3298950195312	996.2021484375	23.39560317993164	1155.2548828125	998.8164672851562	46.39735794067383	1116.066040039062	1068.9931640625	-47.41070938110352	850.5237426757812	1060.327514648438	-72.78692626953125	899.702392578125	523.5975952148438	-139.6535186767578	845.9750366210938	647.258056640625	-71.74945831298828	996.1412963867188	26.38355827331543	-183.6853485107422	924.056640625	258.1126403808594	-119.990966796875	1019.774169921875	65.09649658203125	-412.040283203125	1063.476196289062	58.96144866943359	-339.2278747558594	957.0924072265625	39.84213256835938	-300.648681640625	1066.978393554688	26.99323844909668	-123.0240478515625	1133.384765625	502.3895874023438	99.24354553222656	1154.333862304688	783.9735107421875	44.98242568969727	1052.165649414062	103.5924530029297	456.4617004394531	1129.582763671875	395.8924560546875	196.1040954589844	1030.917114257812	33.70833587646484	240.2879333496094	984.6600952148438	45.93680953979492	287.1005249023438	1087.931396484375	33.80916213989258	350.3506164550781	997.827392578125	146.7285003662109	488.7593383789062	
